<?xml version="1.0" encoding="UTF-8"?>
<!DOCTYPE svg PUBLIC "-//W3C//DTD SVG 1.1//EN" "http://www.w3.org/Graphics/SVG/1.1/DTD/svg11.dtd">
<svg xmlns="http://www.w3.org/2000/svg" version="1.1" width="310px" height="310px" style="shape-rendering:geometricPrecision; text-rendering:geometricPrecision; image-rendering:optimizeQuality; fill-rule:evenodd; clip-rule:evenodd" xmlns:xlink="http://www.w3.org/1999/xlink">
<g><path style="opacity:0.965" fill="#131313" d="M 143.5,4.5 C 220.194,3.73867 272.027,39.072 299,110.5C 315.52,177.826 297.02,233.16 243.5,276.5C 191.151,311.457 136.817,314.623 80.5,286C 21.5041,248.157 -2.99588,194.324 7,124.5C 21.0889,67.0133 56.2556,28.8466 112.5,10C 122.749,7.32831 133.082,5.49498 143.5,4.5 Z"/></g>
<g><path style="opacity:1" fill="#1b4f35" d="M 156.5,26.5 C 155.209,26.2627 154.209,26.596 153.5,27.5C 153.167,27.5 152.833,27.5 152.5,27.5C 152.62,26.4138 153.287,25.7472 154.5,25.5C 155.416,25.5427 156.083,25.8761 156.5,26.5 Z"/></g>
<g><path style="opacity:1" fill="#238c57" d="M 153.5,27.5 C 154.209,26.596 155.209,26.2627 156.5,26.5C 157.6,27.6049 158.267,28.9382 158.5,30.5C 157.078,29.075 155.411,28.075 153.5,27.5 Z"/></g>
<g><path style="opacity:1" fill="#32fc97" d="M 153.5,27.5 C 155.411,28.075 157.078,29.075 158.5,30.5C 159.345,31.6715 160.011,33.0048 160.5,34.5C 160.738,36.4044 161.738,37.7377 163.5,38.5C 164.338,38.8417 164.672,39.5084 164.5,40.5C 164.738,42.4044 165.738,43.7377 167.5,44.5C 168.836,46.5082 170.17,48.5082 171.5,50.5C 171.025,53.3126 172.025,55.3126 174.5,56.5C 174.738,58.4044 175.738,59.7377 177.5,60.5C 177.427,62.0269 178.094,63.0269 179.5,63.5C 179.328,64.4916 179.662,65.1583 180.5,65.5C 180.427,67.0269 181.094,68.0269 182.5,68.5C 182.427,70.0269 183.094,71.0269 184.5,71.5C 184.328,72.4916 184.662,73.1583 185.5,73.5C 185.427,75.0269 186.094,76.0269 187.5,76.5C 188.338,76.8417 188.672,77.5084 188.5,78.5C 188.427,80.0269 189.094,81.0269 190.5,81.5C 191.338,81.8417 191.672,82.5084 191.5,83.5C 191.493,88.1357 193.493,91.4691 197.5,93.5C 197.427,95.0269 198.094,96.0269 199.5,96.5C 199.833,96.5 200.167,96.5 200.5,96.5C 200.025,99.3126 201.025,101.313 203.5,102.5C 204.338,102.842 204.672,103.508 204.5,104.5C 204.427,106.027 205.094,107.027 206.5,107.5C 206.738,109.404 207.738,110.738 209.5,111.5C 209.427,113.027 210.094,114.027 211.5,114.5C 211.5,115.167 211.5,115.833 211.5,116.5C 212.11,118.434 213.11,120.101 214.5,121.5C 215.167,121.833 215.833,122.167 216.5,122.5C 216.157,124.483 216.824,125.817 218.5,126.5C 218.738,128.404 219.738,129.738 221.5,130.5C 221.884,132.929 222.551,135.263 223.5,137.5C 221.784,137.371 220.117,137.038 218.5,136.5C 215.86,135.552 213.193,134.552 210.5,133.5C 210.027,132.094 209.027,131.427 207.5,131.5C 207.167,131.5 206.833,131.5 206.5,131.5C 204.967,129.755 202.967,128.755 200.5,128.5C 200.167,128.5 199.833,128.5 199.5,128.5C 197.967,126.755 195.967,125.755 193.5,125.5C 193.167,125.5 192.833,125.5 192.5,125.5C 192.027,124.094 191.027,123.427 189.5,123.5C 188.833,123.5 188.167,123.5 187.5,123.5C 186.508,123.672 185.842,123.338 185.5,122.5C 185.027,121.094 184.027,120.427 182.5,120.5C 181.833,120.5 181.167,120.5 180.5,120.5C 180.167,120.5 179.833,120.5 179.5,120.5C 179.027,119.094 178.027,118.427 176.5,118.5C 175.393,116.031 173.393,115.031 170.5,115.5C 169.833,115.5 169.167,115.5 168.5,115.5C 165.832,112.709 162.498,111.042 158.5,110.5C 158.209,109.351 157.376,108.684 156,108.5C 154.93,108.528 154.097,108.861 153.5,109.5C 151.847,109.66 150.514,110.326 149.5,111.5C 147.883,112.038 146.216,112.371 144.5,112.5C 142.184,113.16 139.851,113.827 137.5,114.5C 135.825,114.868 134.825,115.868 134.5,117.5C 134.167,117.5 133.833,117.5 133.5,117.5C 131.033,117.755 129.033,118.755 127.5,120.5C 126.508,120.328 125.842,120.662 125.5,121.5C 121.55,121.488 118.216,122.821 115.5,125.5C 113.033,125.755 111.033,126.755 109.5,128.5C 108.833,128.5 108.167,128.5 107.5,128.5C 103.142,128.908 99.4753,130.575 96.5,133.5C 95.5084,133.328 94.8417,133.662 94.5,134.5C 92.2188,134.077 90.5521,134.744 89.5,136.5C 89.1667,136.5 88.8333,136.5 88.5,136.5C 84.8141,136.87 83.8141,135.537 85.5,132.5C 86.9573,130.372 87.9573,128.038 88.5,125.5C 90.7368,123.353 92.7368,121.02 94.5,118.5C 96.942,116.879 98.2753,114.546 98.5,111.5C 99.6005,110.395 100.267,109.062 100.5,107.5C 101.906,107.027 102.573,106.027 102.5,104.5C 105.66,100.852 108.327,96.8523 110.5,92.5C 112.167,90.5 113.833,88.5 115.5,86.5C 117.942,84.8791 119.275,82.5458 119.5,79.5C 120.6,78.3951 121.267,77.0618 121.5,75.5C 122.906,75.0269 123.573,74.0269 123.5,72.5C 125.95,70.3709 127.617,67.7043 128.5,64.5C 130.262,63.7377 131.262,62.4044 131.5,60.5C 133.95,58.3709 135.617,55.7043 136.5,52.5C 137.974,51.5637 138.974,50.2303 139.5,48.5C 139.5,48.1667 139.5,47.8333 139.5,47.5C 142.323,46.0077 143.99,43.6743 144.5,40.5C 146.522,38.4687 148.189,36.1354 149.5,33.5C 151.326,31.8525 152.66,29.8525 153.5,27.5 Z"/></g>
<g><path style="opacity:1" fill="#24905a" d="M 152.5,27.5 C 152.833,27.5 153.167,27.5 153.5,27.5C 152.66,29.8525 151.326,31.8525 149.5,33.5C 149.5,33.1667 149.5,32.8333 149.5,32.5C 150.248,30.6675 151.248,29.0009 152.5,27.5 Z"/></g>
<g><path style="opacity:1" fill="#1f6742" d="M 149.5,32.5 C 149.5,32.8333 149.5,33.1667 149.5,33.5C 148.189,36.1354 146.522,38.4687 144.5,40.5C 145.383,37.2957 147.05,34.6291 149.5,32.5 Z"/></g>
<g><path style="opacity:1" fill="#238453" d="M 160.5,34.5 C 162.262,35.2623 163.262,36.5956 163.5,38.5C 161.738,37.7377 160.738,36.4044 160.5,34.5 Z"/></g>
<g><path style="opacity:1" fill="#217449" d="M 164.5,40.5 C 166.262,41.2623 167.262,42.5956 167.5,44.5C 165.738,43.7377 164.738,42.4044 164.5,40.5 Z"/></g>
<g><path style="opacity:1" fill="#1e6340" d="M 144.5,40.5 C 143.99,43.6743 142.323,46.0077 139.5,47.5C 140.786,44.883 142.453,42.5496 144.5,40.5 Z"/></g>
<g><path style="opacity:1" fill="#1e6542" d="M 139.5,48.5 C 138.974,50.2303 137.974,51.5637 136.5,52.5C 136.554,50.368 137.554,49.0347 139.5,48.5 Z"/></g>
<g><path style="opacity:1" fill="#207048" d="M 136.5,52.5 C 135.617,55.7043 133.95,58.3709 131.5,60.5C 132.383,57.2957 134.05,54.6291 136.5,52.5 Z"/></g>
<g><path style="opacity:1" fill="#26975e" d="M 171.5,50.5 C 172.492,52.4561 173.492,54.4561 174.5,56.5C 172.025,55.3126 171.025,53.3126 171.5,50.5 Z"/></g>
<g><path style="opacity:1" fill="#227f50" d="M 174.5,56.5 C 176.262,57.2623 177.262,58.5956 177.5,60.5C 175.738,59.7377 174.738,58.4044 174.5,56.5 Z"/></g>
<g><path style="opacity:1" fill="#207249" d="M 131.5,60.5 C 131.262,62.4044 130.262,63.7377 128.5,64.5C 128.738,62.5956 129.738,61.2623 131.5,60.5 Z"/></g>
<g><path style="opacity:1" fill="#1e6340" d="M 177.5,60.5 C 178.906,60.9731 179.573,61.9731 179.5,63.5C 178.094,63.0269 177.427,62.0269 177.5,60.5 Z"/></g>
<g><path style="opacity:1" fill="#1f6743" d="M 128.5,64.5 C 127.617,67.7043 125.95,70.3709 123.5,72.5C 124.383,69.2957 126.05,66.6291 128.5,64.5 Z"/></g>
<g><path style="opacity:1" fill="#1f7047" d="M 180.5,65.5 C 181.906,65.9731 182.573,66.9731 182.5,68.5C 181.094,68.0269 180.427,67.0269 180.5,65.5 Z"/></g>
<g><path style="opacity:1" fill="#1f6742" d="M 182.5,68.5 C 183.906,68.9731 184.573,69.9731 184.5,71.5C 183.094,71.0269 182.427,70.0269 182.5,68.5 Z"/></g>
<g><path style="opacity:1" fill="#207048" d="M 123.5,72.5 C 123.573,74.0269 122.906,75.0269 121.5,75.5C 121.427,73.9731 122.094,72.9731 123.5,72.5 Z"/></g>
<g><path style="opacity:1" fill="#21774b" d="M 185.5,73.5 C 186.906,73.9731 187.573,74.9731 187.5,76.5C 186.094,76.0269 185.427,75.0269 185.5,73.5 Z"/></g>
<g><path style="opacity:1" fill="#1f6642" d="M 121.5,75.5 C 121.267,77.0618 120.6,78.3951 119.5,79.5C 119.167,79.5 118.833,79.5 118.5,79.5C 118.738,77.5956 119.738,76.2623 121.5,75.5 Z"/></g>
<g><path style="opacity:1" fill="#228453" d="M 188.5,78.5 C 189.906,78.9731 190.573,79.9731 190.5,81.5C 189.094,81.0269 188.427,80.0269 188.5,78.5 Z"/></g>
<g><path style="opacity:1" fill="#1f6c45" d="M 117.5,81.5 C 117.573,83.0269 116.906,84.0269 115.5,84.5C 115.427,82.9731 116.094,81.9731 117.5,81.5 Z"/></g>
<g><path style="opacity:1" fill="#2ccc7c" d="M 118.5,79.5 C 118.833,79.5 119.167,79.5 119.5,79.5C 119.275,82.5458 117.942,84.8791 115.5,86.5C 115.5,85.8333 115.5,85.1667 115.5,84.5C 116.906,84.0269 117.573,83.0269 117.5,81.5C 117.833,80.8333 118.167,80.1667 118.5,79.5 Z"/></g>
<g><path style="opacity:1" fill="#207048" d="M 115.5,84.5 C 115.5,85.1667 115.5,85.8333 115.5,86.5C 113.833,88.5 112.167,90.5 110.5,92.5C 111.383,89.2957 113.05,86.6291 115.5,84.5 Z"/></g>
<g><path style="opacity:1" fill="#2eda85" d="M 191.5,83.5 C 192.401,84.2905 193.068,85.2905 193.5,86.5C 193.427,88.0269 194.094,89.0269 195.5,89.5C 196.167,90.1667 196.833,90.8333 197.5,91.5C 197.5,92.1667 197.5,92.8333 197.5,93.5C 193.493,91.4691 191.493,88.1357 191.5,83.5 Z"/></g>
<g><path style="opacity:1" fill="#238956" d="M 193.5,86.5 C 194.906,86.9731 195.573,87.9731 195.5,89.5C 194.094,89.0269 193.427,88.0269 193.5,86.5 Z"/></g>
<g><path style="opacity:1" fill="#269b60" d="M 197.5,91.5 C 198.537,92.9303 199.204,94.597 199.5,96.5C 198.094,96.0269 197.427,95.0269 197.5,93.5C 197.5,92.8333 197.5,92.1667 197.5,91.5 Z"/></g>
<g><path style="opacity:1" fill="#206f47" d="M 110.5,92.5 C 108.327,96.8523 105.66,100.852 102.5,104.5C 104.178,99.8033 106.844,95.8033 110.5,92.5 Z"/></g>
<g><path style="opacity:1" fill="#27a365" d="M 200.5,96.5 C 201.308,98.2202 202.308,99.8869 203.5,101.5C 203.5,101.833 203.5,102.167 203.5,102.5C 201.025,101.313 200.025,99.3126 200.5,96.5 Z"/></g>
<g><path style="opacity:1" fill="#1a3d2b" d="M 203.5,102.5 C 203.5,102.167 203.5,101.833 203.5,101.5C 205.446,102.035 206.446,103.368 206.5,105.5C 205.833,105.167 205.167,104.833 204.5,104.5C 204.672,103.508 204.338,102.842 203.5,102.5 Z"/></g>
<g><path style="opacity:1" fill="#207148" d="M 102.5,104.5 C 102.573,106.027 101.906,107.027 100.5,107.5C 100.427,105.973 101.094,104.973 102.5,104.5 Z"/></g>
<g><path style="opacity:1" fill="#27ad6a" d="M 204.5,104.5 C 205.167,104.833 205.833,105.167 206.5,105.5C 206.5,106.167 206.5,106.833 206.5,107.5C 205.094,107.027 204.427,106.027 204.5,104.5 Z"/></g>
<g><path style="opacity:1" fill="#2ac075" d="M 153.5,109.5 C 154.097,108.861 154.93,108.528 156,108.5C 157.376,108.684 158.209,109.351 158.5,110.5C 158.167,110.5 157.833,110.5 157.5,110.5C 157.167,110.5 156.833,110.5 156.5,110.5C 155.791,109.596 154.791,109.263 153.5,109.5 Z"/></g>
<g><path style="opacity:1" fill="#1f6642" d="M 100.5,107.5 C 100.267,109.062 99.6005,110.395 98.5,111.5C 98.1667,111.5 97.8333,111.5 97.5,111.5C 97.7376,109.596 98.7376,108.262 100.5,107.5 Z"/></g>
<g><path style="opacity:1" fill="#25995f" d="M 206.5,107.5 C 208.262,108.262 209.262,109.596 209.5,111.5C 207.738,110.738 206.738,109.404 206.5,107.5 Z"/></g>
<g><path style="opacity:1" fill="#1c5035" d="M 153.5,109.5 C 154.791,109.263 155.791,109.596 156.5,110.5C 154.194,110.993 151.861,111.326 149.5,111.5C 150.514,110.326 151.847,109.66 153.5,109.5 Z"/></g>
<g><path style="opacity:1" fill="#248b58" d="M 157.5,110.5 C 157.833,110.5 158.167,110.5 158.5,110.5C 162.498,111.042 165.832,112.709 168.5,115.5C 164.592,114.231 160.925,112.565 157.5,110.5 Z"/></g>
<g><path style="opacity:1" fill="#1d5639" d="M 149.5,111.5 C 147.967,113.245 145.967,114.245 143.5,114.5C 143.833,113.833 144.167,113.167 144.5,112.5C 146.216,112.371 147.883,112.038 149.5,111.5 Z"/></g>
<g><path style="opacity:1" fill="#217f50" d="M 209.5,111.5 C 210.906,111.973 211.573,112.973 211.5,114.5C 210.094,114.027 209.427,113.027 209.5,111.5 Z"/></g>
<g><path style="opacity:1" fill="#2bc377" d="M 144.5,112.5 C 144.167,113.167 143.833,113.833 143.5,114.5C 143.167,114.5 142.833,114.5 142.5,114.5C 140.847,114.66 139.514,115.326 138.5,116.5C 137.167,116.833 135.833,117.167 134.5,117.5C 134.825,115.868 135.825,114.868 137.5,114.5C 139.851,113.827 142.184,113.16 144.5,112.5 Z"/></g>
<g><path style="opacity:1" fill="#1f6c45" d="M 96.5,113.5 C 96.573,115.027 95.9063,116.027 94.5,116.5C 94.427,114.973 95.0937,113.973 96.5,113.5 Z"/></g>
<g><path style="opacity:1" fill="#1a402c" d="M 142.5,114.5 C 141.817,116.176 140.483,116.843 138.5,116.5C 139.514,115.326 140.847,114.66 142.5,114.5 Z"/></g>
<g><path style="opacity:1" fill="#2bc779" d="M 170.5,115.5 C 173.393,115.031 175.393,116.031 176.5,118.5C 175.833,118.5 175.167,118.5 174.5,118.5C 173.167,117.5 171.833,116.5 170.5,115.5 Z"/></g>
<g><path style="opacity:1" fill="#2ccc7c" d="M 97.5,111.5 C 97.8333,111.5 98.1667,111.5 98.5,111.5C 98.2753,114.546 96.942,116.879 94.5,118.5C 94.5,117.833 94.5,117.167 94.5,116.5C 95.9063,116.027 96.573,115.027 96.5,113.5C 96.8333,112.833 97.1667,112.167 97.5,111.5 Z"/></g>
<g><path style="opacity:1" fill="#20744a" d="M 211.5,114.5 C 212.906,114.973 213.573,115.973 213.5,117.5C 212.833,117.167 212.167,116.833 211.5,116.5C 211.5,115.833 211.5,115.167 211.5,114.5 Z"/></g>
<g><path style="opacity:1" fill="#206e46" d="M 94.5,116.5 C 94.5,117.167 94.5,117.833 94.5,118.5C 92.7368,121.02 90.7368,123.353 88.5,125.5C 89.7589,121.975 91.7589,118.975 94.5,116.5 Z"/></g>
<g><path style="opacity:1" fill="#193d2b" d="M 138.5,116.5 C 136.967,118.245 134.967,119.245 132.5,119.5C 132.833,118.833 133.167,118.167 133.5,117.5C 133.833,117.5 134.167,117.5 134.5,117.5C 135.833,117.167 137.167,116.833 138.5,116.5 Z"/></g>
<g><path style="opacity:1" fill="#21774b" d="M 174.5,118.5 C 175.167,118.5 175.833,118.5 176.5,118.5C 178.027,118.427 179.027,119.094 179.5,120.5C 177.597,120.204 175.93,119.537 174.5,118.5 Z"/></g>
<g><path style="opacity:1" fill="#2bc679" d="M 211.5,116.5 C 212.167,116.833 212.833,117.167 213.5,117.5C 214.338,117.842 214.672,118.508 214.5,119.5C 214.5,120.167 214.5,120.833 214.5,121.5C 213.11,120.101 212.11,118.434 211.5,116.5 Z"/></g>
<g><path style="opacity:1" fill="#25975e" d="M 133.5,117.5 C 133.167,118.167 132.833,118.833 132.5,119.5C 132.167,119.5 131.833,119.5 131.5,119.5C 130.167,119.833 128.833,120.167 127.5,120.5C 129.033,118.755 131.033,117.755 133.5,117.5 Z"/></g>
<g><path style="opacity:1" fill="#193325" d="M 131.5,119.5 C 130.105,121.379 128.105,122.379 125.5,122.5C 125.5,122.167 125.5,121.833 125.5,121.5C 125.842,120.662 126.508,120.328 127.5,120.5C 128.833,120.167 130.167,119.833 131.5,119.5 Z"/></g>
<g><path style="opacity:1" fill="#1e6340" d="M 180.5,120.5 C 181.167,120.5 181.833,120.5 182.5,120.5C 182.833,121.167 183.167,121.833 183.5,122.5C 181.973,122.573 180.973,121.906 180.5,120.5 Z"/></g>
<g><path style="opacity:1" fill="#28b06c" d="M 182.5,120.5 C 184.027,120.427 185.027,121.094 185.5,122.5C 184.833,122.5 184.167,122.5 183.5,122.5C 183.167,121.833 182.833,121.167 182.5,120.5 Z"/></g>
<g><path style="opacity:1" fill="#228453" d="M 214.5,119.5 C 215.906,119.973 216.573,120.973 216.5,122.5C 215.833,122.167 215.167,121.833 214.5,121.5C 214.5,120.833 214.5,120.167 214.5,119.5 Z"/></g>
<g><path style="opacity:1" fill="#26a163" d="M 125.5,121.5 C 125.5,121.833 125.5,122.167 125.5,122.5C 122.204,123.424 118.871,124.424 115.5,125.5C 118.216,122.821 121.55,121.488 125.5,121.5 Z"/></g>
<g><path style="opacity:1" fill="#1f6743" d="M 151.5,125.5 C 152.449,124.848 153.615,124.514 155,124.5C 157.008,124.307 158.508,124.974 159.5,126.5C 158.833,126.5 158.167,126.5 157.5,126.5C 155.735,125.539 153.735,125.205 151.5,125.5 Z"/></g>
<g><path style="opacity:1" fill="#1f6e46" d="M 187.5,123.5 C 188.167,123.5 188.833,123.5 189.5,123.5C 189.833,124.167 190.167,124.833 190.5,125.5C 188.973,125.573 187.973,124.906 187.5,123.5 Z"/></g>
<g><path style="opacity:1" fill="#29ba72" d="M 189.5,123.5 C 191.027,123.427 192.027,124.094 192.5,125.5C 192.167,125.5 191.833,125.5 191.5,125.5C 191.167,125.5 190.833,125.5 190.5,125.5C 190.167,124.833 189.833,124.167 189.5,123.5 Z"/></g>
<g><path style="opacity:1" fill="#2bc075" d="M 216.5,122.5 C 217.167,123.167 217.833,123.833 218.5,124.5C 218.5,125.167 218.5,125.833 218.5,126.5C 216.824,125.817 216.157,124.483 216.5,122.5 Z"/></g>
<g><path style="opacity:1" fill="#207047" d="M 151.5,125.5 C 151.167,126.167 150.833,126.833 150.5,127.5C 149.167,127.833 147.833,128.167 146.5,128.5C 147.486,126.592 149.152,125.592 151.5,125.5 Z"/></g>
<g><path style="opacity:1" fill="#2ac477" d="M 151.5,125.5 C 153.735,125.205 155.735,125.539 157.5,126.5C 155.097,126.448 152.764,126.781 150.5,127.5C 150.833,126.833 151.167,126.167 151.5,125.5 Z"/></g>
<g><path style="opacity:1" fill="#32fd98" d="M 157.5,126.5 C 158.167,126.5 158.833,126.5 159.5,126.5C 160.514,127.674 161.847,128.34 163.5,128.5C 163.973,129.906 164.973,130.573 166.5,130.5C 166.833,130.5 167.167,130.5 167.5,130.5C 173.922,134.1 180.589,137.433 187.5,140.5C 189.216,140.629 190.883,140.962 192.5,141.5C 192.973,142.906 193.973,143.573 195.5,143.5C 195.833,143.5 196.167,143.5 196.5,143.5C 198.023,145.282 200.023,146.615 202.5,147.5C 206.071,149.12 209.738,150.453 213.5,151.5C 216.369,153.844 219.702,155.177 223.5,155.5C 224.93,156.537 226.597,157.204 228.5,157.5C 229.11,158.391 229.443,159.391 229.5,160.5C 229.167,160.5 228.833,160.5 228.5,160.5C 226.973,160.427 225.973,161.094 225.5,162.5C 223.326,162.75 221.659,163.75 220.5,165.5C 220.167,165.5 219.833,165.5 219.5,165.5C 217.973,165.427 216.973,166.094 216.5,167.5C 215.508,167.328 214.842,167.662 214.5,168.5C 212.973,168.427 211.973,169.094 211.5,170.5C 209.326,170.75 207.659,171.75 206.5,173.5C 206.167,173.5 205.833,173.5 205.5,173.5C 203.326,173.75 201.659,174.75 200.5,176.5C 198.973,176.427 197.973,177.094 197.5,178.5C 196.391,178.557 195.391,178.89 194.5,179.5C 192.973,179.427 191.973,180.094 191.5,181.5C 189.847,181.66 188.514,182.326 187.5,183.5C 186.833,183.833 186.167,184.167 185.5,184.5C 183.973,184.427 182.973,185.094 182.5,186.5C 180.326,186.75 178.659,187.75 177.5,189.5C 175.847,189.66 174.514,190.326 173.5,191.5C 171.326,191.75 169.659,192.75 168.5,194.5C 166.152,194.592 164.486,195.592 163.5,197.5C 163.167,197.5 162.833,197.5 162.5,197.5C 160.973,197.427 159.973,198.094 159.5,199.5C 157.565,200.15 155.565,200.483 153.5,200.5C 152.609,199.89 151.609,199.557 150.5,199.5C 149.365,197.787 147.698,197.12 145.5,197.5C 145.5,197.167 145.5,196.833 145.5,196.5C 143.797,193.368 141.13,191.701 137.5,191.5C 136.833,191.5 136.167,191.5 135.5,191.5C 134.486,190.326 133.153,189.66 131.5,189.5C 131.027,188.094 130.027,187.427 128.5,187.5C 127.313,185.025 125.313,184.025 122.5,184.5C 121.833,183.833 121.167,183.167 120.5,182.5C 118.97,179.979 116.636,178.979 113.5,179.5C 112.738,177.738 111.404,176.738 109.5,176.5C 108.656,174.241 106.989,173.241 104.5,173.5C 103.609,172.89 102.609,172.557 101.5,172.5C 101.027,171.094 100.027,170.427 98.5,170.5C 97.3646,168.787 95.698,168.12 93.5,168.5C 92.7377,166.738 91.4044,165.738 89.5,165.5C 89.0269,164.094 88.0269,163.427 86.5,163.5C 86.0269,162.094 85.0269,161.427 83.5,161.5C 82.8333,161.5 82.1667,161.5 81.5,161.5C 81.0269,160.094 80.0269,159.427 78.5,159.5C 78.369,158.761 78.5357,158.094 79,157.5C 80.3024,156.915 81.469,156.249 82.5,155.5C 83.8333,154.833 85.1667,154.167 86.5,153.5C 88.698,153.88 90.3646,153.213 91.5,151.5C 92.1667,151.5 92.8333,151.5 93.5,151.5C 95.0269,151.573 96.0269,150.906 96.5,149.5C 99.491,149.834 101.824,148.834 103.5,146.5C 104.167,146.5 104.833,146.5 105.5,146.5C 112.27,144.586 118.603,141.919 124.5,138.5C 125.391,137.89 126.391,137.557 127.5,137.5C 130.331,136.921 132.664,135.588 134.5,133.5C 136.674,133.25 138.341,132.25 139.5,130.5C 141.698,130.88 143.365,130.213 144.5,128.5C 145.167,128.5 145.833,128.5 146.5,128.5C 147.833,128.167 149.167,127.833 150.5,127.5C 152.764,126.781 155.097,126.448 157.5,126.5 Z"/></g>
<g><path style="opacity:1" fill="#1d583a" d="M 159.5,126.5 C 161.898,126.259 163.898,126.926 165.5,128.5C 164.833,128.5 164.167,128.5 163.5,128.5C 161.847,128.34 160.514,127.674 159.5,126.5 Z"/></g>
<g><path style="opacity:1" fill="#1d5d3c" d="M 191.5,125.5 C 191.833,125.5 192.167,125.5 192.5,125.5C 192.833,125.5 193.167,125.5 193.5,125.5C 193.833,126.167 194.167,126.833 194.5,127.5C 192.973,127.573 191.973,126.906 191.5,125.5 Z"/></g>
<g><path style="opacity:1" fill="#207248" d="M 115.5,125.5 C 113.967,127.245 111.967,128.245 109.5,128.5C 111.033,126.755 113.033,125.755 115.5,125.5 Z"/></g>
<g><path style="opacity:1" fill="#29bb72" d="M 193.5,125.5 C 195.967,125.755 197.967,126.755 199.5,128.5C 198.167,128.167 196.833,127.833 195.5,127.5C 195.167,127.5 194.833,127.5 194.5,127.5C 194.167,126.833 193.833,126.167 193.5,125.5 Z"/></g>
<g><path style="opacity:1" fill="#248f59" d="M 218.5,124.5 C 219.492,126.456 220.492,128.456 221.5,130.5C 219.738,129.738 218.738,128.404 218.5,126.5C 218.5,125.833 218.5,125.167 218.5,124.5 Z"/></g>
<g><path style="opacity:1" fill="#1f6843" d="M 144.5,128.5 C 143.365,130.213 141.698,130.88 139.5,130.5C 140.93,129.463 142.597,128.796 144.5,128.5 Z"/></g>
<g><path style="opacity:1" fill="#28b06c" d="M 163.5,128.5 C 164.167,128.5 164.833,128.5 165.5,128.5C 165.833,129.167 166.167,129.833 166.5,130.5C 164.973,130.573 163.973,129.906 163.5,128.5 Z"/></g>
<g><path style="opacity:1" fill="#1d5e3d" d="M 195.5,127.5 C 196.833,127.833 198.167,128.167 199.5,128.5C 199.833,128.5 200.167,128.5 200.5,128.5C 200.833,129.167 201.167,129.833 201.5,130.5C 199.033,130.245 197.033,129.245 195.5,127.5 Z"/></g>
<g><path style="opacity:1" fill="#207148" d="M 88.5,125.5 C 87.9573,128.038 86.9573,130.372 85.5,132.5C 84.1667,133.833 82.8333,135.167 81.5,136.5C 83.0875,132.317 85.4208,128.65 88.5,125.5 Z"/></g>
<g><path style="opacity:1" fill="#27a767" d="M 107.5,128.5 C 107.027,129.906 106.027,130.573 104.5,130.5C 102.973,130.427 101.973,131.094 101.5,132.5C 101.167,132.5 100.833,132.5 100.5,132.5C 99.1667,132.833 97.8333,133.167 96.5,133.5C 99.4753,130.575 103.142,128.908 107.5,128.5 Z"/></g>
<g><path style="opacity:1" fill="#1c5237" d="M 165.5,128.5 C 167.967,128.755 169.967,129.755 171.5,131.5C 170.167,131.167 168.833,130.833 167.5,130.5C 167.167,130.5 166.833,130.5 166.5,130.5C 166.167,129.833 165.833,129.167 165.5,128.5 Z"/></g>
<g><path style="opacity:1" fill="#2ac477" d="M 200.5,128.5 C 202.967,128.755 204.967,129.755 206.5,131.5C 205.167,131.167 203.833,130.833 202.5,130.5C 202.167,130.5 201.833,130.5 201.5,130.5C 201.167,129.833 200.833,129.167 200.5,128.5 Z"/></g>
<g><path style="opacity:1" fill="#1a4931" d="M 104.5,130.5 C 104.027,131.906 103.027,132.573 101.5,132.5C 101.973,131.094 102.973,130.427 104.5,130.5 Z"/></g>
<g><path style="opacity:1" fill="#1f613f" d="M 139.5,130.5 C 138.341,132.25 136.674,133.25 134.5,133.5C 133.167,133.833 131.833,134.167 130.5,134.5C 133.053,132.416 136.053,131.083 139.5,130.5 Z"/></g>
<g><path style="opacity:1" fill="#1f6743" d="M 202.5,130.5 C 203.833,130.833 205.167,131.167 206.5,131.5C 206.833,131.5 207.167,131.5 207.5,131.5C 207.973,132.906 208.973,133.573 210.5,133.5C 213.193,134.552 215.86,135.552 218.5,136.5C 218.833,137.167 219.167,137.833 219.5,138.5C 213.379,136.582 207.712,133.915 202.5,130.5 Z"/></g>
<g><path style="opacity:1" fill="#2abe75" d="M 207.5,131.5 C 209.027,131.427 210.027,132.094 210.5,133.5C 208.973,133.573 207.973,132.906 207.5,131.5 Z"/></g>
<g><path style="opacity:1" fill="#1a3727" d="M 100.5,132.5 C 99.1048,134.379 97.1048,135.379 94.5,135.5C 94.5,135.167 94.5,134.833 94.5,134.5C 94.8417,133.662 95.5084,133.328 96.5,133.5C 97.8333,133.167 99.1667,132.833 100.5,132.5 Z"/></g>
<g><path style="opacity:1" fill="#2abf75" d="M 167.5,130.5 C 168.833,130.833 170.167,131.167 171.5,131.5C 176.62,133.56 181.62,135.893 186.5,138.5C 186.833,139.167 187.167,139.833 187.5,140.5C 180.589,137.433 173.922,134.1 167.5,130.5 Z"/></g>
<g><path style="opacity:1" fill="#29b56f" d="M 94.5,134.5 C 94.5,134.833 94.5,135.167 94.5,135.5C 92.7085,135.366 91.0418,135.699 89.5,136.5C 90.5521,134.744 92.2188,134.077 94.5,134.5 Z"/></g>
<g><path style="opacity:1" fill="#2cd17f" d="M 85.5,132.5 C 83.8141,135.537 84.8141,136.87 88.5,136.5C 88.5,136.833 88.5,137.167 88.5,137.5C 85.8862,138.545 83.2196,139.045 80.5,139C 81.2524,138.329 81.5858,137.496 81.5,136.5C 82.8333,135.167 84.1667,133.833 85.5,132.5 Z"/></g>
<g><path style="opacity:1" fill="#1a3f2c" d="M 94.5,135.5 C 92.8984,137.074 90.8984,137.741 88.5,137.5C 88.5,137.167 88.5,136.833 88.5,136.5C 88.8333,136.5 89.1667,136.5 89.5,136.5C 91.0418,135.699 92.7085,135.366 94.5,135.5 Z"/></g>
<g><path style="opacity:1" fill="#2abf75" d="M 134.5,133.5 C 132.664,135.588 130.331,136.921 127.5,137.5C 127.5,137.167 127.5,136.833 127.5,136.5C 128.29,135.599 129.29,134.932 130.5,134.5C 131.833,134.167 133.167,133.833 134.5,133.5 Z"/></g>
<g><path style="opacity:1" fill="#2cca7b" d="M 221.5,130.5 C 222.89,131.899 223.89,133.566 224.5,135.5C 225.366,137.144 225.866,138.811 226,140.5C 224.644,139.62 223.144,139.286 221.5,139.5C 221.158,138.662 220.492,138.328 219.5,138.5C 219.167,137.833 218.833,137.167 218.5,136.5C 220.117,137.038 221.784,137.371 223.5,137.5C 222.551,135.263 221.884,132.929 221.5,130.5 Z"/></g>
<g><path style="opacity:1" fill="#248b57" d="M 127.5,136.5 C 127.5,136.833 127.5,137.167 127.5,137.5C 126.391,137.557 125.391,137.89 124.5,138.5C 123.167,138.833 121.833,139.167 120.5,139.5C 120.5,139.167 120.5,138.833 120.5,138.5C 122.588,137.061 124.921,136.394 127.5,136.5 Z"/></g>
<g><path style="opacity:1" fill="#1b4d34" d="M 81.5,136.5 C 81.5858,137.496 81.2524,138.329 80.5,139C 83.2196,139.045 85.8862,138.545 88.5,137.5C 85.665,139.785 82.3316,141.118 78.5,141.5C 78.2729,139.067 79.2729,137.401 81.5,136.5 Z"/></g>
<g><path style="opacity:1" fill="#1d5f3e" d="M 120.5,138.5 C 120.5,138.833 120.5,139.167 120.5,139.5C 118.579,140.363 116.579,141.029 114.5,141.5C 116.033,139.755 118.033,138.755 120.5,138.5 Z"/></g>
<g><path style="opacity:1" fill="#238855" d="M 186.5,138.5 C 188.967,138.755 190.967,139.755 192.5,141.5C 190.883,140.962 189.216,140.629 187.5,140.5C 187.167,139.833 186.833,139.167 186.5,138.5 Z"/></g>
<g><path style="opacity:1" fill="#21774c" d="M 224.5,135.5 C 227.756,137.215 228.422,139.215 226.5,141.5C 224.578,141.199 222.912,140.533 221.5,139.5C 223.144,139.286 224.644,139.62 226,140.5C 225.866,138.811 225.366,137.144 224.5,135.5 Z"/></g>
<g><path style="opacity:1" fill="#2cd07e" d="M 124.5,138.5 C 118.603,141.919 112.27,144.586 105.5,146.5C 105.833,145.833 106.167,145.167 106.5,144.5C 108.403,144.204 110.07,143.537 111.5,142.5C 112.391,141.89 113.391,141.557 114.5,141.5C 116.579,141.029 118.579,140.363 120.5,139.5C 121.833,139.167 123.167,138.833 124.5,138.5 Z"/></g>
<g><path style="opacity:1" fill="#29b670" d="M 192.5,141.5 C 193.167,141.5 193.833,141.5 194.5,141.5C 194.833,142.167 195.167,142.833 195.5,143.5C 193.973,143.573 192.973,142.906 192.5,141.5 Z"/></g>
<g><path style="opacity:1" fill="#1f6c45" d="M 194.5,141.5 C 196.027,141.427 197.027,142.094 197.5,143.5C 197.167,143.5 196.833,143.5 196.5,143.5C 196.167,143.5 195.833,143.5 195.5,143.5C 195.167,142.833 194.833,142.167 194.5,141.5 Z"/></g>
<g><path style="opacity:1" fill="#1a442f" d="M 111.5,142.5 C 110.07,143.537 108.403,144.204 106.5,144.5C 107.635,142.787 109.302,142.12 111.5,142.5 Z"/></g>
<g><path style="opacity:1" fill="#21764b" d="M 106.5,144.5 C 106.167,145.167 105.833,145.833 105.5,146.5C 104.833,146.5 104.167,146.5 103.5,146.5C 103.5,146.167 103.5,145.833 103.5,145.5C 104.391,144.89 105.391,144.557 106.5,144.5 Z"/></g>
<g><path style="opacity:1" fill="#1a432e" d="M 103.5,145.5 C 103.5,145.833 103.5,146.167 103.5,146.5C 102.167,146.833 100.833,147.167 99.5,147.5C 100.287,145.896 101.62,145.229 103.5,145.5 Z"/></g>
<g><path style="opacity:1" fill="#2bc377" d="M 196.5,143.5 C 196.833,143.5 197.167,143.5 197.5,143.5C 202.387,145.777 207.387,147.777 212.5,149.5C 212.833,150.167 213.167,150.833 213.5,151.5C 209.738,150.453 206.071,149.12 202.5,147.5C 200.023,146.615 198.023,145.282 196.5,143.5 Z"/></g>
<g><path style="opacity:1" fill="#29b46e" d="M 103.5,146.5 C 101.824,148.834 99.491,149.834 96.5,149.5C 97.2905,148.599 98.2905,147.932 99.5,147.5C 100.833,147.167 102.167,146.833 103.5,146.5 Z"/></g>
<g><path style="opacity:1" fill="#207148" d="M 94.5,149.5 C 94.1667,150.167 93.8333,150.833 93.5,151.5C 92.8333,151.5 92.1667,151.5 91.5,151.5C 91.5,151.167 91.5,150.833 91.5,150.5C 92.391,149.89 93.391,149.557 94.5,149.5 Z"/></g>
<g><path style="opacity:1" fill="#29bb72" d="M 94.5,149.5 C 95.1667,149.5 95.8333,149.5 96.5,149.5C 96.0269,150.906 95.0269,151.573 93.5,151.5C 93.8333,150.833 94.1667,150.167 94.5,149.5 Z"/></g>
<g><path style="opacity:1" fill="#193d2b" d="M 91.5,150.5 C 91.5,150.833 91.5,151.167 91.5,151.5C 90.1667,151.833 88.8333,152.167 87.5,152.5C 88.287,150.896 89.6203,150.229 91.5,150.5 Z"/></g>
<g><path style="opacity:1" fill="#1d583a" d="M 212.5,149.5 C 214.967,149.755 216.967,150.755 218.5,152.5C 216.883,151.962 215.216,151.629 213.5,151.5C 213.167,150.833 212.833,150.167 212.5,149.5 Z"/></g>
<g><path style="opacity:1" fill="#26a465" d="M 91.5,151.5 C 90.3646,153.213 88.698,153.88 86.5,153.5C 86.5,152.833 86.8333,152.5 87.5,152.5C 88.8333,152.167 90.1667,151.833 91.5,151.5 Z"/></g>
<g><path style="opacity:1" fill="#1c5035" d="M 86.5,153.5 C 85.1667,154.167 83.8333,154.833 82.5,155.5C 81.8333,155.5 81.1667,155.5 80.5,155.5C 81.9899,153.72 83.9899,153.054 86.5,153.5 Z"/></g>
<g><path style="opacity:1" fill="#2bc87a" d="M 213.5,151.5 C 215.216,151.629 216.883,151.962 218.5,152.5C 220.368,153.263 222.035,154.263 223.5,155.5C 219.702,155.177 216.369,153.844 213.5,151.5 Z"/></g>
<g><path style="opacity:1" fill="#217b4e" d="M 223.5,155.5 C 225.698,155.12 227.365,155.787 228.5,157.5C 226.597,157.204 224.93,156.537 223.5,155.5 Z"/></g>
<g><path style="opacity:1" fill="#25955d" d="M 228.5,157.5 C 229.5,157.5 230.5,157.5 231.5,157.5C 231.715,159.179 231.048,160.179 229.5,160.5C 229.443,159.391 229.11,158.391 228.5,157.5 Z"/></g>
<g><path style="opacity:1" fill="#238a57" d="M 80.5,155.5 C 81.1667,155.5 81.8333,155.5 82.5,155.5C 81.469,156.249 80.3024,156.915 79,157.5C 78.5357,158.094 78.369,158.761 78.5,159.5C 77.6236,159.631 76.9569,159.298 76.5,158.5C 77.2826,156.712 78.6159,155.712 80.5,155.5 Z"/></g>
<g><path style="opacity:1" fill="#21794c" d="M 78.5,159.5 C 80.0269,159.427 81.0269,160.094 81.5,161.5C 79.9731,161.573 78.9731,160.906 78.5,159.5 Z"/></g>
<g><path style="opacity:1" fill="#26a465" d="M 228.5,160.5 C 228.167,161.167 227.833,161.833 227.5,162.5C 226.833,162.5 226.167,162.5 225.5,162.5C 225.973,161.094 226.973,160.427 228.5,160.5 Z"/></g>
<g><path style="opacity:1" fill="#193e2b" d="M 231.5,157.5 C 232.434,158.568 232.768,159.901 232.5,161.5C 230.784,161.629 229.117,161.962 227.5,162.5C 227.833,161.833 228.167,161.167 228.5,160.5C 228.833,160.5 229.167,160.5 229.5,160.5C 231.048,160.179 231.715,159.179 231.5,157.5 Z"/></g>
<g><path style="opacity:1" fill="#1d5c3c" d="M 81.5,161.5 C 82.1667,161.5 82.8333,161.5 83.5,161.5C 83.8333,162.167 84.1667,162.833 84.5,163.5C 82.9731,163.573 81.9731,162.906 81.5,161.5 Z"/></g>
<g><path style="opacity:1" fill="#29b871" d="M 83.5,161.5 C 85.0269,161.427 86.0269,162.094 86.5,163.5C 85.8333,163.5 85.1667,163.5 84.5,163.5C 84.1667,162.833 83.8333,162.167 83.5,161.5 Z"/></g>
<g><path style="opacity:1" fill="#25995f" d="M 225.5,162.5 C 224.564,163.974 223.23,164.974 221.5,165.5C 221.167,165.5 220.833,165.5 220.5,165.5C 221.659,163.75 223.326,162.75 225.5,162.5 Z"/></g>
<g><path style="opacity:1" fill="#248f59" d="M 84.5,163.5 C 85.1667,163.5 85.8333,163.5 86.5,163.5C 88.0269,163.427 89.0269,164.094 89.5,165.5C 87.597,165.204 85.9303,164.537 84.5,163.5 Z"/></g>
<g><path style="opacity:1" fill="#21764b" d="M 89.5,165.5 C 91.4044,165.738 92.7377,166.738 93.5,168.5C 91.5956,168.262 90.2623,167.262 89.5,165.5 Z"/></g>
<g><path style="opacity:1" fill="#27a666" d="M 219.5,165.5 C 219.167,166.167 218.833,166.833 218.5,167.5C 217.833,167.5 217.167,167.5 216.5,167.5C 216.973,166.094 217.973,165.427 219.5,165.5 Z"/></g>
<g><path style="opacity:1" fill="#1b4a32" d="M 219.5,165.5 C 219.833,165.5 220.167,165.5 220.5,165.5C 220.833,165.5 221.167,165.5 221.5,165.5C 221.027,166.906 220.027,167.573 218.5,167.5C 218.833,166.833 219.167,166.167 219.5,165.5 Z"/></g>
<g><path style="opacity:1" fill="#1f6240" d="M 216.5,167.5 C 217.167,167.5 217.833,167.5 218.5,167.5C 217.486,168.674 216.153,169.34 214.5,169.5C 214.5,169.167 214.5,168.833 214.5,168.5C 214.842,167.662 215.508,167.328 216.5,167.5 Z"/></g>
<g><path style="opacity:1" fill="#24915a" d="M 93.5,168.5 C 95.698,168.12 97.3646,168.787 98.5,170.5C 96.597,170.204 94.9303,169.537 93.5,168.5 Z"/></g>
<g><path style="opacity:1" fill="#25965d" d="M 214.5,168.5 C 214.5,168.833 214.5,169.167 214.5,169.5C 213.609,170.11 212.609,170.443 211.5,170.5C 211.973,169.094 212.973,168.427 214.5,168.5 Z"/></g>
<g><path style="opacity:1" fill="#228453" d="M 98.5,170.5 C 100.027,170.427 101.027,171.094 101.5,172.5C 99.9731,172.573 98.9731,171.906 98.5,170.5 Z"/></g>
<g><path style="opacity:1" fill="#238d58" d="M 211.5,170.5 C 210.564,171.974 209.23,172.974 207.5,173.5C 207.167,173.5 206.833,173.5 206.5,173.5C 207.659,171.75 209.326,170.75 211.5,170.5 Z"/></g>
<g><path style="opacity:1" fill="#1e6742" d="M 101.5,172.5 C 102.609,172.557 103.609,172.89 104.5,173.5C 104.5,173.833 104.5,174.167 104.5,174.5C 102.973,174.573 101.973,173.906 101.5,172.5 Z"/></g>
<g><path style="opacity:1" fill="#2bca7b" d="M 104.5,174.5 C 104.5,174.167 104.5,173.833 104.5,173.5C 106.989,173.241 108.656,174.241 109.5,176.5C 108.833,176.5 108.167,176.5 107.5,176.5C 107.027,175.094 106.027,174.427 104.5,174.5 Z"/></g>
<g><path style="opacity:1" fill="#27ab69" d="M 205.5,173.5 C 205.167,174.167 204.833,174.833 204.5,175.5C 203.167,175.833 201.833,176.167 200.5,176.5C 201.659,174.75 203.326,173.75 205.5,173.5 Z"/></g>
<g><path style="opacity:1" fill="#1a3f2c" d="M 205.5,173.5 C 205.833,173.5 206.167,173.5 206.5,173.5C 206.833,173.5 207.167,173.5 207.5,173.5C 207.027,174.906 206.027,175.573 204.5,175.5C 204.833,174.833 205.167,174.167 205.5,173.5 Z"/></g>
<g><path style="opacity:1" fill="#1b4b33" d="M 104.5,174.5 C 106.027,174.427 107.027,175.094 107.5,176.5C 105.973,176.573 104.973,175.906 104.5,174.5 Z"/></g>
<g><path style="opacity:1" fill="#183f2b" d="M 83.5,178.5 C 82.5041,178.586 81.6708,178.252 81,177.5C 80.5357,178.094 80.369,178.761 80.5,179.5C 78.0698,178.347 78.0698,177.347 80.5,176.5C 82.0377,176.453 83.0377,177.12 83.5,178.5 Z"/></g>
<g><path style="opacity:1" fill="#228051" d="M 109.5,176.5 C 111.404,176.738 112.738,177.738 113.5,179.5C 111.596,179.262 110.262,178.262 109.5,176.5 Z"/></g>
<g><path style="opacity:1" fill="#238654" d="M 200.5,176.5 C 200.027,177.906 199.027,178.573 197.5,178.5C 197.973,177.094 198.973,176.427 200.5,176.5 Z"/></g>
<g><path style="opacity:1" fill="#1c5437" d="M 230.5,180.5 C 230.5,179.167 229.833,178.5 228.5,178.5C 229.287,176.896 230.62,176.229 232.5,176.5C 232.771,178.38 232.104,179.713 230.5,180.5 Z"/></g>
<g><path style="opacity:1" fill="#27a867" d="M 83.5,178.5 C 83.8333,179.167 84.1667,179.833 84.5,180.5C 83.6618,180.842 83.3284,181.508 83.5,182.5C 82.8333,182.167 82.1667,181.833 81.5,181.5C 81.1667,180.833 80.8333,180.167 80.5,179.5C 80.369,178.761 80.5357,178.094 81,177.5C 81.6708,178.252 82.5041,178.586 83.5,178.5 Z"/></g>
<g><path style="opacity:1" fill="#1b5035" d="M 83.5,178.5 C 85.0269,178.427 86.0269,179.094 86.5,180.5C 85.8333,180.5 85.1667,180.5 84.5,180.5C 84.1667,179.833 83.8333,179.167 83.5,178.5 Z"/></g>
<g><path style="opacity:1" fill="#2bbe74" d="M 113.5,179.5 C 116.636,178.979 118.97,179.979 120.5,182.5C 119.833,182.5 119.167,182.5 118.5,182.5C 118.027,181.094 117.027,180.427 115.5,180.5C 114.508,180.672 113.842,180.338 113.5,179.5 Z"/></g>
<g><path style="opacity:1" fill="#1e603e" d="M 197.5,178.5 C 196.738,180.262 195.404,181.262 193.5,181.5C 193.833,180.833 194.167,180.167 194.5,179.5C 195.391,178.89 196.391,178.557 197.5,178.5 Z"/></g>
<g><path style="opacity:1" fill="#27a465" d="M 228.5,178.5 C 229.833,178.5 230.5,179.167 230.5,180.5C 229.833,180.833 229.167,181.167 228.5,181.5C 228.158,180.662 227.492,180.328 226.5,180.5C 226.5,180.167 226.5,179.833 226.5,179.5C 226.842,178.662 227.508,178.328 228.5,178.5 Z"/></g>
<g><path style="opacity:1" fill="#26a365" d="M 194.5,179.5 C 194.167,180.167 193.833,180.833 193.5,181.5C 192.833,181.5 192.167,181.5 191.5,181.5C 191.973,180.094 192.973,179.427 194.5,179.5 Z"/></g>
<g><path style="opacity:1" fill="#206e46" d="M 226.5,179.5 C 226.5,179.833 226.5,180.167 226.5,180.5C 225.609,181.11 224.609,181.443 223.5,181.5C 223.973,180.094 224.973,179.427 226.5,179.5 Z"/></g>
<g><path style="opacity:1" fill="#1e6341" d="M 86.5,180.5 C 88.0269,180.427 89.0269,181.094 89.5,182.5C 87.9731,182.573 86.9731,181.906 86.5,180.5 Z"/></g>
<g><path style="opacity:1" fill="#1c5638" d="M 115.5,180.5 C 117.027,180.427 118.027,181.094 118.5,182.5C 116.973,182.573 115.973,181.906 115.5,180.5 Z"/></g>
<g><path style="opacity:1" fill="#1c4e34" d="M 230.5,180.5 C 230.262,182.404 229.262,183.738 227.5,184.5C 227.5,184.167 227.5,183.833 227.5,183.5C 227.833,182.833 228.167,182.167 228.5,181.5C 229.167,181.167 229.833,180.833 230.5,180.5 Z"/></g>
<g><path style="opacity:1" fill="#2edc86" d="M 84.5,180.5 C 85.1667,180.5 85.8333,180.5 86.5,180.5C 86.9731,181.906 87.9731,182.573 89.5,182.5C 89.8417,183.338 90.5084,183.672 91.5,183.5C 91.8333,184.167 92.1667,184.833 92.5,185.5C 90.8828,184.962 89.2161,184.629 87.5,184.5C 87.6287,186.216 87.962,187.883 88.5,189.5C 87.8333,189.167 87.1667,188.833 86.5,188.5C 86.6716,187.508 86.3382,186.842 85.5,186.5C 85.2671,184.938 84.6005,183.605 83.5,182.5C 83.3284,181.508 83.6618,180.842 84.5,180.5 Z"/></g>
<g><path style="opacity:1" fill="#27a767" d="M 191.5,181.5 C 191.027,182.906 190.027,183.573 188.5,183.5C 188.167,183.5 187.833,183.5 187.5,183.5C 188.514,182.326 189.847,181.66 191.5,181.5 Z"/></g>
<g><path style="opacity:1" fill="#32fb97" d="M 226.5,180.5 C 227.492,180.328 228.158,180.662 228.5,181.5C 228.167,182.167 227.833,182.833 227.5,183.5C 226.094,183.973 225.427,184.973 225.5,186.5C 222.102,189.627 219.435,193.293 217.5,197.5C 215.453,199.55 213.786,201.883 212.5,204.5C 210.453,206.55 208.786,208.883 207.5,211.5C 204.102,214.627 201.435,218.293 199.5,222.5C 189.012,236.139 179.012,250.139 169.5,264.5C 166.067,267.601 163.4,271.268 161.5,275.5C 160.094,275.973 159.427,276.973 159.5,278.5C 158.5,278.833 157.833,279.5 157.5,280.5C 156.167,280.167 154.833,279.833 153.5,279.5C 152.833,279.167 152.167,278.833 151.5,278.5C 151.573,276.973 150.906,275.973 149.5,275.5C 149.262,273.596 148.262,272.262 146.5,271.5C 146.262,269.596 145.262,268.262 143.5,267.5C 143.573,265.973 142.906,264.973 141.5,264.5C 141.262,262.596 140.262,261.262 138.5,260.5C 138.573,258.973 137.906,257.973 136.5,257.5C 136.262,255.596 135.262,254.262 133.5,253.5C 133.262,251.596 132.262,250.262 130.5,249.5C 130.573,247.973 129.906,246.973 128.5,246.5C 128.672,245.508 128.338,244.842 127.5,244.5C 126.92,242.251 125.587,240.585 123.5,239.5C 123.262,237.596 122.262,236.262 120.5,235.5C 120.672,234.508 120.338,233.842 119.5,233.5C 118.92,231.251 117.587,229.585 115.5,228.5C 115.672,227.508 115.338,226.842 114.5,226.5C 114.262,224.596 113.262,223.262 111.5,222.5C 111.573,220.973 110.906,219.973 109.5,219.5C 109.262,217.596 108.262,216.262 106.5,215.5C 105.92,213.251 104.587,211.585 102.5,210.5C 102.443,209.391 102.11,208.391 101.5,207.5C 101.446,205.368 100.446,204.035 98.5,203.5C 97.8333,202.5 97.1667,201.5 96.5,200.5C 96.4456,198.368 95.4456,197.035 93.5,196.5C 92.8333,195.167 91.8333,194.167 90.5,193.5C 90.2671,191.938 89.6005,190.605 88.5,189.5C 87.962,187.883 87.6287,186.216 87.5,184.5C 89.2161,184.629 90.8828,184.962 92.5,185.5C 93.1667,185.5 93.8333,185.5 94.5,185.5C 94.8417,186.338 95.5084,186.672 96.5,186.5C 96.9731,187.906 97.9731,188.573 99.5,188.5C 99.9731,189.906 100.973,190.573 102.5,190.5C 103.492,190.328 104.158,190.662 104.5,191.5C 104.973,192.906 105.973,193.573 107.5,193.5C 107.973,194.906 108.973,195.573 110.5,195.5C 111.391,196.11 112.391,196.443 113.5,196.5C 114.486,198.408 116.152,199.408 118.5,199.5C 118.973,200.906 119.973,201.573 121.5,201.5C 123.216,203.025 125.216,204.025 127.5,204.5C 127.973,205.906 128.973,206.573 130.5,206.5C 130.842,207.338 131.508,207.672 132.5,207.5C 132.973,208.906 133.973,209.573 135.5,209.5C 135.821,211.048 136.821,211.715 138.5,211.5C 139.391,212.11 140.391,212.443 141.5,212.5C 141.5,213.833 142.167,214.5 143.5,214.5C 144.605,215.6 145.938,216.267 147.5,216.5C 148.492,216.328 149.158,216.662 149.5,217.5C 150.211,219.201 151.545,220.201 153.5,220.5C 155.035,221.788 156.701,221.788 158.5,220.5C 161.942,219.455 164.608,217.455 166.5,214.5C 167.833,214.5 168.5,213.833 168.5,212.5C 170.153,212.34 171.486,211.674 172.5,210.5C 174.848,210.408 176.514,209.408 177.5,207.5C 179.674,207.25 181.341,206.25 182.5,204.5C 184.38,204.771 185.713,204.104 186.5,202.5C 188.848,202.408 190.514,201.408 191.5,199.5C 192.609,199.443 193.609,199.11 194.5,198.5C 196.027,198.573 197.027,197.906 197.5,196.5C 199.027,196.573 200.027,195.906 200.5,194.5C 202.674,194.25 204.341,193.25 205.5,191.5C 207.153,191.34 208.486,190.674 209.5,189.5C 211.674,189.25 213.341,188.25 214.5,186.5C 216.027,186.573 217.027,185.906 217.5,184.5C 219.819,184.008 221.819,183.008 223.5,181.5C 224.609,181.443 225.609,181.11 226.5,180.5 Z"/></g>
<g><path style="opacity:1" fill="#1f6b45" d="M 91.5,183.5 C 93.0269,183.427 94.0269,184.094 94.5,185.5C 93.8333,185.5 93.1667,185.5 92.5,185.5C 92.1667,184.833 91.8333,184.167 91.5,183.5 Z"/></g>
<g><path style="opacity:1" fill="#1e6340" d="M 187.5,183.5 C 187.833,183.5 188.167,183.5 188.5,183.5C 187.738,185.262 186.404,186.262 184.5,186.5C 184.833,185.833 185.167,185.167 185.5,184.5C 186.167,184.167 186.833,183.833 187.5,183.5 Z"/></g>
<g><path style="opacity:1" fill="#228554" d="M 227.5,183.5 C 227.5,183.833 227.5,184.167 227.5,184.5C 227.167,185.5 226.5,186.167 225.5,186.5C 225.427,184.973 226.094,183.973 227.5,183.5 Z"/></g>
<g><path style="opacity:1" fill="#1c5236" d="M 81.5,181.5 C 82.1667,181.833 82.8333,182.167 83.5,182.5C 84.6005,183.605 85.2671,184.938 85.5,186.5C 83.4131,185.415 82.0798,183.749 81.5,181.5 Z"/></g>
<g><path style="opacity:1" fill="#24925b" d="M 122.5,184.5 C 125.313,184.025 127.313,185.025 128.5,187.5C 126.456,186.492 124.456,185.492 122.5,184.5 Z"/></g>
<g><path style="opacity:1" fill="#27a867" d="M 185.5,184.5 C 185.167,185.167 184.833,185.833 184.5,186.5C 183.833,186.5 183.167,186.5 182.5,186.5C 182.973,185.094 183.973,184.427 185.5,184.5 Z"/></g>
<g><path style="opacity:1" fill="#1e6340" d="M 217.5,184.5 C 217.027,185.906 216.027,186.573 214.5,186.5C 214.973,185.094 215.973,184.427 217.5,184.5 Z"/></g>
<g><path style="opacity:1" fill="#207249" d="M 96.5,186.5 C 98.0269,186.427 99.0269,187.094 99.5,188.5C 97.9731,188.573 96.9731,187.906 96.5,186.5 Z"/></g>
<g><path style="opacity:1" fill="#26a063" d="M 182.5,186.5 C 181.341,188.25 179.674,189.25 177.5,189.5C 178.659,187.75 180.326,186.75 182.5,186.5 Z"/></g>
<g><path style="opacity:1" fill="#1f6843" d="M 214.5,186.5 C 213.341,188.25 211.674,189.25 209.5,189.5C 210.659,187.75 212.326,186.75 214.5,186.5 Z"/></g>
<g><path style="opacity:1" fill="#1f6542" d="M 128.5,187.5 C 130.027,187.427 131.027,188.094 131.5,189.5C 129.973,189.573 128.973,188.906 128.5,187.5 Z"/></g>
<g><path style="opacity:1" fill="#238956" d="M 99.5,188.5 C 101.027,188.427 102.027,189.094 102.5,190.5C 100.973,190.573 99.9731,189.906 99.5,188.5 Z"/></g>
<g><path style="opacity:1" fill="#1b4831" d="M 86.5,188.5 C 87.1667,188.833 87.8333,189.167 88.5,189.5C 89.6005,190.605 90.2671,191.938 90.5,193.5C 88.4131,192.415 87.0798,190.749 86.5,188.5 Z"/></g>
<g><path style="opacity:1" fill="#25975e" d="M 177.5,189.5 C 176.713,191.104 175.38,191.771 173.5,191.5C 174.514,190.326 175.847,189.66 177.5,189.5 Z"/></g>
<g><path style="opacity:1" fill="#21784d" d="M 225.5,186.5 C 225.291,187.922 224.791,189.255 224,190.5C 222.281,193.288 220.115,195.621 217.5,197.5C 219.435,193.293 222.102,189.627 225.5,186.5 Z"/></g>
<g><path style="opacity:1" fill="#24925b" d="M 104.5,191.5 C 106.027,191.427 107.027,192.094 107.5,193.5C 105.973,193.573 104.973,192.906 104.5,191.5 Z"/></g>
<g><path style="opacity:1" fill="#1e603e" d="M 135.5,191.5 C 136.167,191.5 136.833,191.5 137.5,191.5C 137.833,192.167 138.167,192.833 138.5,193.5C 136.973,193.573 135.973,192.906 135.5,191.5 Z"/></g>
<g><path style="opacity:1" fill="#2ccc7c" d="M 137.5,191.5 C 141.13,191.701 143.797,193.368 145.5,196.5C 144.391,196.443 143.391,196.11 142.5,195.5C 142.027,194.094 141.027,193.427 139.5,193.5C 139.167,193.5 138.833,193.5 138.5,193.5C 138.167,192.833 137.833,192.167 137.5,191.5 Z"/></g>
<g><path style="opacity:1" fill="#26a264" d="M 173.5,191.5 C 172.341,193.25 170.674,194.25 168.5,194.5C 169.659,192.75 171.326,191.75 173.5,191.5 Z"/></g>
<g><path style="opacity:1" fill="#1e603f" d="M 205.5,191.5 C 204.341,193.25 202.674,194.25 200.5,194.5C 201.659,192.75 203.326,191.75 205.5,191.5 Z"/></g>
<g><path style="opacity:1" fill="#27a968" d="M 107.5,193.5 C 108.609,193.557 109.609,193.89 110.5,194.5C 110.5,194.833 110.5,195.167 110.5,195.5C 108.973,195.573 107.973,194.906 107.5,193.5 Z"/></g>
<g><path style="opacity:1" fill="#207148" d="M 139.5,193.5 C 141.027,193.427 142.027,194.094 142.5,195.5C 140.973,195.573 139.973,194.906 139.5,193.5 Z"/></g>
<g><path style="opacity:1" fill="#1d5c3c" d="M 90.5,193.5 C 91.8333,194.167 92.8333,195.167 93.5,196.5C 93.5,196.833 93.5,197.167 93.5,197.5C 91.7376,196.738 90.7376,195.404 90.5,193.5 Z"/></g>
<g><path style="opacity:1" fill="#1e6843" d="M 110.5,195.5 C 110.5,195.167 110.5,194.833 110.5,194.5C 112.027,194.427 113.027,195.094 113.5,196.5C 112.391,196.443 111.391,196.11 110.5,195.5 Z"/></g>
<g><path style="opacity:1" fill="#27aa69" d="M 168.5,194.5 C 168.167,195.5 167.5,196.167 166.5,196.5C 165.391,196.557 164.391,196.89 163.5,197.5C 164.486,195.592 166.152,194.592 168.5,194.5 Z"/></g>
<g><path style="opacity:1" fill="#1e6441" d="M 200.5,194.5 C 200.027,195.906 199.027,196.573 197.5,196.5C 197.167,196.5 196.833,196.5 196.5,196.5C 197.514,195.326 198.847,194.66 200.5,194.5 Z"/></g>
<g><path style="opacity:1" fill="#2abe74" d="M 93.5,197.5 C 93.5,197.167 93.5,196.833 93.5,196.5C 95.4456,197.035 96.4456,198.368 96.5,200.5C 95.8333,200.167 95.1667,199.833 94.5,199.5C 94.6716,198.508 94.3382,197.842 93.5,197.5 Z"/></g>
<g><path style="opacity:1" fill="#1b4c33" d="M 166.5,196.5 C 165.341,198.25 163.674,199.25 161.5,199.5C 161.833,198.833 162.167,198.167 162.5,197.5C 162.833,197.5 163.167,197.5 163.5,197.5C 164.391,196.89 165.391,196.557 166.5,196.5 Z"/></g>
<g><path style="opacity:1" fill="#25995f" d="M 196.5,196.5 C 196.833,196.5 197.167,196.5 197.5,196.5C 197.027,197.906 196.027,198.573 194.5,198.5C 194.5,198.167 194.5,197.833 194.5,197.5C 195.167,197.167 195.833,196.833 196.5,196.5 Z"/></g>
<g><path style="opacity:1" fill="#228050" d="M 113.5,196.5 C 115.674,196.75 117.341,197.75 118.5,199.5C 116.152,199.408 114.486,198.408 113.5,196.5 Z"/></g>
<g><path style="opacity:1" fill="#238856" d="M 145.5,197.5 C 147.698,197.12 149.365,197.787 150.5,199.5C 148.597,199.204 146.93,198.537 145.5,197.5 Z"/></g>
<g><path style="opacity:1" fill="#269d61" d="M 162.5,197.5 C 162.167,198.167 161.833,198.833 161.5,199.5C 160.833,199.5 160.167,199.5 159.5,199.5C 159.973,198.094 160.973,197.427 162.5,197.5 Z"/></g>
<g><path style="opacity:1" fill="#1d5e3d" d="M 194.5,197.5 C 194.5,197.833 194.5,198.167 194.5,198.5C 193.609,199.11 192.609,199.443 191.5,199.5C 191.973,198.094 192.973,197.427 194.5,197.5 Z"/></g>
<g><path style="opacity:1" fill="#1c4d33" d="M 94.5,199.5 C 95.1667,199.833 95.8333,200.167 96.5,200.5C 97.1667,201.5 97.8333,202.5 98.5,203.5C 98.5,203.833 98.5,204.167 98.5,204.5C 96.4131,203.415 95.0798,201.749 94.5,199.5 Z"/></g>
<g><path style="opacity:1" fill="#238855" d="M 118.5,199.5 C 119.167,199.5 119.833,199.5 120.5,199.5C 120.833,200.167 121.167,200.833 121.5,201.5C 119.973,201.573 118.973,200.906 118.5,199.5 Z"/></g>
<g><path style="opacity:1" fill="#1c4932" d="M 120.5,199.5 C 123.165,200.852 125.498,202.518 127.5,204.5C 125.216,204.025 123.216,203.025 121.5,201.5C 121.167,200.833 120.833,200.167 120.5,199.5 Z"/></g>
<g><path style="opacity:1" fill="#28ab69" d="M 159.5,199.5 C 159.027,200.906 158.027,201.573 156.5,201.5C 155.209,201.737 154.209,201.404 153.5,200.5C 155.565,200.483 157.565,200.15 159.5,199.5 Z"/></g>
<g><path style="opacity:1" fill="#1e6441" d="M 150.5,199.5 C 151.609,199.557 152.609,199.89 153.5,200.5C 154.209,201.404 155.209,201.737 156.5,201.5C 153.92,203.016 151.92,202.349 150.5,199.5 Z"/></g>
<g><path style="opacity:1" fill="#21784c" d="M 191.5,199.5 C 190.514,201.408 188.848,202.408 186.5,202.5C 187.659,200.75 189.326,199.75 191.5,199.5 Z"/></g>
<g><path style="opacity:1" fill="#228252" d="M 217.5,197.5 C 216.99,200.674 215.323,203.008 212.5,204.5C 213.786,201.883 215.453,199.55 217.5,197.5 Z"/></g>
<g><path style="opacity:1" fill="#2abc73" d="M 98.5,204.5 C 98.5,204.167 98.5,203.833 98.5,203.5C 100.446,204.035 101.446,205.368 101.5,207.5C 100.833,207.167 100.167,206.833 99.5,206.5C 99.6716,205.508 99.3382,204.842 98.5,204.5 Z"/></g>
<g><path style="opacity:1" fill="#1f6742" d="M 186.5,202.5 C 185.713,204.104 184.38,204.771 182.5,204.5C 183.514,203.326 184.847,202.66 186.5,202.5 Z"/></g>
<g><path style="opacity:1" fill="#21764b" d="M 127.5,204.5 C 129.027,204.427 130.027,205.094 130.5,206.5C 128.973,206.573 127.973,205.906 127.5,204.5 Z"/></g>
<g><path style="opacity:1" fill="#1d5a3b" d="M 182.5,204.5 C 181.341,206.25 179.674,207.25 177.5,207.5C 178.659,205.75 180.326,204.75 182.5,204.5 Z"/></g>
<g><path style="opacity:1" fill="#1b4730" d="M 99.5,206.5 C 100.167,206.833 100.833,207.167 101.5,207.5C 102.11,208.391 102.443,209.391 102.5,210.5C 100.738,209.738 99.7376,208.404 99.5,206.5 Z"/></g>
<g><path style="opacity:1" fill="#217e50" d="M 132.5,207.5 C 133.609,207.557 134.609,207.89 135.5,208.5C 135.5,208.833 135.5,209.167 135.5,209.5C 133.973,209.573 132.973,208.906 132.5,207.5 Z"/></g>
<g><path style="opacity:1" fill="#1a4630" d="M 135.5,209.5 C 135.5,209.167 135.5,208.833 135.5,208.5C 137.027,208.427 138.027,209.094 138.5,210.5C 137.391,210.443 136.391,210.11 135.5,209.5 Z"/></g>
<g><path style="opacity:1" fill="#227c4e" d="M 177.5,207.5 C 176.514,209.408 174.848,210.408 172.5,210.5C 173.659,208.75 175.326,207.75 177.5,207.5 Z"/></g>
<g><path style="opacity:1" fill="#228051" d="M 212.5,204.5 C 211.99,207.674 210.323,210.008 207.5,211.5C 208.786,208.883 210.453,206.55 212.5,204.5 Z"/></g>
<g><path style="opacity:1" fill="#2abe74" d="M 135.5,209.5 C 136.391,210.11 137.391,210.443 138.5,210.5C 138.5,210.833 138.5,211.167 138.5,211.5C 136.821,211.715 135.821,211.048 135.5,209.5 Z"/></g>
<g><path style="opacity:1" fill="#1c5639" d="M 138.5,211.5 C 138.5,211.167 138.5,210.833 138.5,210.5C 140.027,210.427 141.027,211.094 141.5,212.5C 140.391,212.443 139.391,212.11 138.5,211.5 Z"/></g>
<g><path style="opacity:1" fill="#248d58" d="M 141.5,212.5 C 142.492,212.328 143.158,212.662 143.5,213.5C 143.5,213.833 143.5,214.167 143.5,214.5C 142.167,214.5 141.5,213.833 141.5,212.5 Z"/></g>
<g><path style="opacity:1" fill="#193d2b" d="M 166.5,213.5 C 166.5,213.833 166.5,214.167 166.5,214.5C 165.391,214.557 164.391,214.89 163.5,215.5C 163.821,213.952 164.821,213.285 166.5,213.5 Z"/></g>
<g><path style="opacity:1" fill="#24905a" d="M 168.5,212.5 C 168.5,213.833 167.833,214.5 166.5,214.5C 166.5,214.167 166.5,213.833 166.5,213.5C 166.842,212.662 167.508,212.328 168.5,212.5 Z"/></g>
<g><path style="opacity:1" fill="#1e5f3e" d="M 102.5,210.5 C 104.587,211.585 105.92,213.251 106.5,215.5C 104.413,214.415 103.08,212.749 102.5,210.5 Z"/></g>
<g><path style="opacity:1" fill="#1f6c46" d="M 143.5,214.5 C 143.5,214.167 143.5,213.833 143.5,213.5C 145.404,213.738 146.738,214.738 147.5,216.5C 145.938,216.267 144.605,215.6 143.5,214.5 Z"/></g>
<g><path style="opacity:1" fill="#217b4e" d="M 163.5,215.5 C 163.027,216.906 162.027,217.573 160.5,217.5C 160.5,217.167 160.5,216.833 160.5,216.5C 161.391,215.89 162.391,215.557 163.5,215.5 Z"/></g>
<g><path style="opacity:1" fill="#227d4f" d="M 207.5,211.5 C 207.291,212.922 206.791,214.255 206,215.5C 204.281,218.288 202.115,220.621 199.5,222.5C 201.435,218.293 204.102,214.627 207.5,211.5 Z"/></g>
<g><path style="opacity:1" fill="#1f6c45" d="M 106.5,215.5 C 108.262,216.262 109.262,217.596 109.5,219.5C 107.738,218.738 106.738,217.404 106.5,215.5 Z"/></g>
<g><path style="opacity:1" fill="#1a4730" d="M 160.5,216.5 C 160.5,216.833 160.5,217.167 160.5,217.5C 159.609,218.11 158.609,218.443 157.5,218.5C 157.973,217.094 158.973,216.427 160.5,216.5 Z"/></g>
<g><path style="opacity:1" fill="#2dd581" d="M 166.5,214.5 C 164.608,217.455 161.942,219.455 158.5,220.5C 156.701,221.788 155.035,221.788 153.5,220.5C 154.791,220.737 155.791,220.404 156.5,219.5C 157.167,219.5 157.5,219.167 157.5,218.5C 158.609,218.443 159.609,218.11 160.5,217.5C 162.027,217.573 163.027,216.906 163.5,215.5C 164.391,214.89 165.391,214.557 166.5,214.5 Z"/></g>
<g><path style="opacity:1" fill="#238755" d="M 149.5,217.5 C 151.746,218.455 154.079,219.122 156.5,219.5C 155.791,220.404 154.791,220.737 153.5,220.5C 151.545,220.201 150.211,219.201 149.5,217.5 Z"/></g>
<g><path style="opacity:1" fill="#1f6c45" d="M 109.5,219.5 C 110.906,219.973 111.573,220.973 111.5,222.5C 110.094,222.027 109.427,221.027 109.5,219.5 Z"/></g>
<g><path style="opacity:1" fill="#1f6c45" d="M 111.5,222.5 C 113.262,223.262 114.262,224.596 114.5,226.5C 112.738,225.738 111.738,224.404 111.5,222.5 Z"/></g>
<g><path style="opacity:1" fill="#1f6642" d="M 115.5,228.5 C 117.587,229.585 118.92,231.251 119.5,233.5C 117.413,232.415 116.08,230.749 115.5,228.5 Z"/></g>
<g><path style="opacity:1" fill="#1d5539" d="M 120.5,235.5 C 122.262,236.262 123.262,237.596 123.5,239.5C 121.738,238.738 120.738,237.404 120.5,235.5 Z"/></g>
<g><path style="opacity:1" fill="#228352" d="M 199.5,222.5 C 190.479,237.213 180.479,251.213 169.5,264.5C 179.012,250.139 189.012,236.139 199.5,222.5 Z"/></g>
<g><path style="opacity:1" fill="#206f47" d="M 123.5,239.5 C 125.587,240.585 126.92,242.251 127.5,244.5C 125.413,243.415 124.08,241.749 123.5,239.5 Z"/></g>
<g><path style="opacity:1" fill="#1c5236" d="M 128.5,246.5 C 129.906,246.973 130.573,247.973 130.5,249.5C 129.094,249.027 128.427,248.027 128.5,246.5 Z"/></g>
<g><path style="opacity:1" fill="#1c5136" d="M 130.5,249.5 C 132.262,250.262 133.262,251.596 133.5,253.5C 131.738,252.738 130.738,251.404 130.5,249.5 Z"/></g>
<g><path style="opacity:1" fill="#1d5b3b" d="M 133.5,253.5 C 135.262,254.262 136.262,255.596 136.5,257.5C 134.738,256.738 133.738,255.404 133.5,253.5 Z"/></g>
<g><path style="opacity:1" fill="#1d583a" d="M 136.5,257.5 C 137.906,257.973 138.573,258.973 138.5,260.5C 137.094,260.027 136.427,259.027 136.5,257.5 Z"/></g>
<g><path style="opacity:1" fill="#1d593a" d="M 138.5,260.5 C 140.262,261.262 141.262,262.596 141.5,264.5C 139.738,263.738 138.738,262.404 138.5,260.5 Z"/></g>
<g><path style="opacity:1" fill="#228252" d="M 169.5,264.5 C 167.6,268.732 164.933,272.399 161.5,275.5C 163.4,271.268 166.067,267.601 169.5,264.5 Z"/></g>
<g><path style="opacity:1" fill="#1d583a" d="M 141.5,264.5 C 142.906,264.973 143.573,265.973 143.5,267.5C 142.094,267.027 141.427,266.027 141.5,264.5 Z"/></g>
<g><path style="opacity:1" fill="#1d583a" d="M 143.5,267.5 C 145.262,268.262 146.262,269.596 146.5,271.5C 144.738,270.738 143.738,269.404 143.5,267.5 Z"/></g>
<g><path style="opacity:1" fill="#1e613f" d="M 146.5,271.5 C 148.262,272.262 149.262,273.596 149.5,275.5C 147.738,274.738 146.738,273.404 146.5,271.5 Z"/></g>
<g><path style="opacity:1" fill="#1e5f3e" d="M 149.5,275.5 C 150.906,275.973 151.573,276.973 151.5,278.5C 150.094,278.027 149.427,277.027 149.5,275.5 Z"/></g>
<g><path style="opacity:1" fill="#228051" d="M 161.5,275.5 C 161.573,277.027 160.906,278.027 159.5,278.5C 159.427,276.973 160.094,275.973 161.5,275.5 Z"/></g>
<g><path style="opacity:1" fill="#2dd17f" d="M 153.5,279.5 C 154.833,279.833 156.167,280.167 157.5,280.5C 157.5,280.833 157.5,281.167 157.5,281.5C 156.791,282.404 155.791,282.737 154.5,282.5C 154.443,281.391 154.11,280.391 153.5,279.5 Z"/></g>
<g><path style="opacity:1" fill="#20744a" d="M 159.5,278.5 C 159.443,279.609 159.11,280.609 158.5,281.5C 158.167,281.5 157.833,281.5 157.5,281.5C 157.5,281.167 157.5,280.833 157.5,280.5C 157.833,279.5 158.5,278.833 159.5,278.5 Z"/></g>
<g><path style="opacity:1" fill="#1e5f3e" d="M 151.5,278.5 C 152.167,278.833 152.833,279.167 153.5,279.5C 154.11,280.391 154.443,281.391 154.5,282.5C 154.167,282.5 153.833,282.5 153.5,282.5C 152.4,281.395 151.733,280.062 151.5,278.5 Z"/></g>
<g><path style="opacity:1" fill="#173023" d="M 157.5,281.5 C 157.833,281.5 158.167,281.5 158.5,281.5C 158.116,283.293 156.95,284.293 155,284.5C 153.97,284.164 153.47,283.497 153.5,282.5C 153.833,282.5 154.167,282.5 154.5,282.5C 155.791,282.737 156.791,282.404 157.5,281.5 Z"/></g>
</svg>
